# xmcd
#
# Track frame offsets: 
#        150
#        8193
#        33110
#        59104
#        84636
#        111755
#        135514
#        154555
#        181733
#        199525
#        224708
#        251740
#        278346
#        288139
#
# Disc length: 4092 seconds
#
# Revision: 0
# Processed by: cddbd v1.5.2PL0 Copyright (c) Steve Scherf et al.
# Submitted via: ExactAudioCopyFreeDBPlugin 1.0
#
DISCID=bd0ffa0e
DTITLE=bird - New Basic
DYEAR=2011
DGENRE=JPop
TTITLE0=Intro
TTITLE1=Flowers
TTITLE2=Up And At It
TTITLE3=Mirror
TTITLE4=Bitter Sweet Friday
TTITLE5=Sometimes Rain
TTITLE6=こんなにもblue
TTITLE7=それを愛と
TTITLE8=Happy Birthday
TTITLE9=DA DA DA DA
TTITLE10=TFR
TTITLE11=Perfect Circle
TTITLE12=Outro
TTITLE13=海を見つめて
EXTD=
EXTT0=
EXTT1=
EXTT2=
EXTT3=
EXTT4=
EXTT5=
EXTT6=
EXTT7=
EXTT8=
EXTT9=
EXTT10=
EXTT11=
EXTT12=
EXTT13=
PLAYORDER=
